<svg width="22" height="17" viewBox="0 0 22 17" fill="none" xmlns="http://www.w3.org/2000/svg">
<path d="M1.11537 5.74998V1.80768C1.11537 1.30256 1.29037 0.875 1.64038 0.525C1.99038 0.175 2.41794 0 2.92308 0H18.3076C18.8128 0 19.2403 0.175 19.5903 0.525C19.9403 0.875 20.1153 1.30256 20.1153 1.80768V5.74998H18.6154V1.80768C18.6154 1.73074 18.5833 1.66023 18.5192 1.59613C18.4551 1.53201 18.3846 1.49995 18.3076 1.49995H2.92308C2.84614 1.49995 2.77562 1.53201 2.7115 1.59613C2.6474 1.66023 2.61535 1.73074 2.61535 1.80768V5.74998H1.11537ZM2.92308 13.9999C2.41794 13.9999 1.99038 13.8249 1.64038 13.4749C1.29037 13.1249 1.11537 12.6974 1.11537 12.1923V7.24995H2.61535V12.1923C2.61535 12.2692 2.6474 12.3397 2.7115 12.4038C2.77562 12.4679 2.84614 12.5 2.92308 12.5H18.3076C18.3846 12.5 18.4551 12.4679 18.5192 12.4038C18.5833 12.3397 18.6154 12.2692 18.6154 12.1923V7.24995H20.1153V12.1923C20.1153 12.6974 19.9403 13.1249 19.5903 13.4749C19.2403 13.8249 18.8128 13.9999 18.3076 13.9999H2.92308ZM0 16.4999V14.9999H21.2307V16.4999H0ZM1.11537 7.24995V5.74998H6.61535C6.7538 5.74998 6.88553 5.78716 7.01053 5.86153C7.13553 5.93587 7.23008 6.03715 7.29418 6.16535L8.69035 8.9423L11.9673 3.13458C12.0314 3.01664 12.1208 2.92627 12.2355 2.86345C12.3503 2.80062 12.4769 2.7692 12.6154 2.7692C12.7538 2.7692 12.8855 2.80062 13.0105 2.86345C13.1355 2.92627 13.2301 3.0269 13.2942 3.16535L14.5865 5.74998H20.1153V7.24995H14.2115C14.0474 7.24995 13.89 7.20732 13.7394 7.12205C13.5888 7.0368 13.475 6.91213 13.3981 6.74803L12.5654 5.07685L9.2788 10.8653C9.2147 10.9935 9.12015 11.0897 8.99515 11.1538C8.87015 11.2179 8.73843 11.25 8.59998 11.25C8.46151 11.25 8.33234 11.2128 8.21248 11.1384C8.09261 11.0641 8.00062 10.9628 7.93652 10.8346L6.1442 7.24995H1.11537Z" fill="#1B7331"/>
</svg>
