<svg width="21" height="18" viewBox="0 0 21 18" fill="none" xmlns="http://www.w3.org/2000/svg">
<path d="M0 17.4999L10.1346 0L20.2691 17.4999H0ZM2.58455 15.9999H17.6846L10.1346 2.99993L2.58455 15.9999ZM10.1346 14.8076C10.3634 14.8076 10.5552 14.7302 10.71 14.5754C10.8648 14.4206 10.9422 14.2288 10.9422 13.9999C10.9422 13.7711 10.8648 13.5793 10.71 13.4245C10.5552 13.2697 10.3634 13.1923 10.1346 13.1923C9.9057 13.1923 9.71388 13.2697 9.55908 13.4245C9.40427 13.5793 9.32688 13.7711 9.32688 13.9999C9.32688 14.2288 9.40427 14.4206 9.55908 14.5754C9.71388 14.7302 9.9057 14.8076 10.1346 14.8076ZM9.38458 12.1923H10.8845V7.19225H9.38458V12.1923Z" fill="#ED9328"/>
</svg>
